# xmcd
#
# Track frame offsets: 
#        150
#        19367
#        36785
#        62395
#        84660
#        104455
#        123405
#        146350
#        162265
#        182652
#        203137
#        220600
#        245357
#        262285
#        282215
#
# Disc length: 4050 seconds
#
# Revision: 0
# Processed by: cddbd v1.5.2PL0 Copyright (c) Steve Scherf et al.
# Submitted via: ExactAudioCopyFreeDBPlugin 1.0
#
DISCID=d60fd00f
DTITLE=杜德伟 - 杜德伟最爱金曲十六首
DYEAR=1900
DGENRE=
TTITLE0=Loving You
TTITLE1=夜半一点钟
TTITLE2=影子舞
TTITLE3=忘情号
TTITLE4=给我吧
TTITLE5=准我
TTITLE6=还是唱下去
TTITLE7=天生喜欢你
TTITLE8=信自己
TTITLE9=擦身情缘
TTITLE10=Because I Love You
TTITLE11=只想留下
TTITLE12=情难定
TTITLE13=等待黎明
TTITLE14=准我再一次
EXTD=
EXTT0=
EXTT1=
EXTT2=
EXTT3=
EXTT4=
EXTT5=
EXTT6=
EXTT7=
EXTT8=
EXTT9=
EXTT10=
EXTT11=
EXTT12=
EXTT13=
EXTT14=
PLAYORDER=
